<svg width="24" height="25" viewBox="0 0 24 25" fill="none" xmlns="http://www.w3.org/2000/svg">
<path d="M16.5 14.542H16.51M3 5.54199V19.542C3 20.6466 3.89543 21.542 5 21.542H19C20.1046 21.542 21 20.6466 21 19.542V9.54199C21 8.43742 20.1046 7.54199 19 7.54199L5 7.54199C3.89543 7.54199 3 6.64656 3 5.54199ZM3 5.54199C3 4.43742 3.89543 3.54199 5 3.54199H17M17 14.542C17 14.8181 16.7761 15.042 16.5 15.042C16.2239 15.042 16 14.8181 16 14.542C16 14.2658 16.2239 14.042 16.5 14.042C16.7761 14.042 17 14.2658 17 14.542Z" stroke="black" stroke-width="2" stroke-linecap="round" stroke-linejoin="round"/>
</svg>
